# xmcd
#
# Track frame offsets: 
#        150
#        23874
#        34029
#        58601
#        74024
#        89752
#        110050
#        116192
#        122379
#        146818
#        158682
#        189005
#        198751
#        208308
#        233590
#        259759
#        275614
#        292335
#        319993
#        332279
#        348809
#
# Disc length: 4751 seconds
#
# Revision: 0
# Processed by: cddbd v1.5.2PL0 Copyright (c) Steve Scherf et al.
# Submitted via: ExactAudioCopyFreeDBPlugin 1.0
#
DISCID=43128d15
DTITLE=The Waterboys - Fiisherman's Box 5
DYEAR=2013
DGENRE=Blues
TTITLE0=Higherbound
TTITLE1=The Grief Of Pan
TTITLE2=World Party
TTITLE3=Working On A Building
TTITLE4=If I Can't Have You
TTITLE5=Killing My Heart
TTITLE6=Trunk Call
TTITLE7=Headphone Mix Song
TTITLE8=St Pepper's Lonely Hearts Club Band
TTITLE9=When Will We Be Married
TTITLE10=Bp's Bathtub Boogie
TTITLE11=We Will Not Be Lovers
TTITLE12=Heading Down The Highway
TTITLE13=Strange Boat
TTITLE14=Fisherman's Blues
TTITLE15=Has Anybody Here Seen Hank
TTITLE16=On My Way To Heaven
TTITLE17=Let Me Feel Holy Again
TTITLE18=A Home In The Meadow
TTITLE19=Strange Boat  and The Good Ship Sirius
TTITLE20=The Stolen Child prototype
EXTD=
EXTT0=
EXTT1=
EXTT2=
EXTT3=
EXTT4=
EXTT5=
EXTT6=
EXTT7=
EXTT8=
EXTT9=
EXTT10=
EXTT11=
EXTT12=
EXTT13=
EXTT14=
EXTT15=
EXTT16=
EXTT17=
EXTT18=
EXTT19=
EXTT20=
PLAYORDER=
